# xmcd
# 
# Track frame offsets:
#     150
#     29051
#     58579
#     95463
#     110903
#     127962
#     142025
#     163205
#     177394
#     208074
#     233493
#     249695
#     264921
#     295818
#     313288
# 
# Disc length: 4582
# 
# Revision: 0
# Processed by: cddbd v1.5.2PL0 Copyright (c) Steve Scherf et al.
# Submitted via: fre:ac v1.0.31
# 
DISCID=e811e40f
DTITLE=Joe Bonamassa - Greatest Hits CD1
DYEAR=2012
DGENRE=Blues
TTITLE0=The Ballad Of John Henry
TTITLE1=Happier Times
TTITLE2=Sloe Gin
TTITLE3=Look Over Yonder's Wall
TTITLE4=Steal Your Heart Away
TTITLE5=Lonesome Road Blues
TTITLE6=Feelin' Good
TTITLE7=Another Kind Of Love
TTITLE8=Slow Train
TTITLE9=One Of These Days
TTITLE10=You Upset Me Baby
TTITLE11=Night Life
TTITLE12=Reconsider Baby
TTITLE13=Long Distance Blues
TTITLE14=Stop!
EXTD=
EXTT0=
EXTT1=
EXTT2=
EXTT3=
EXTT4=
EXTT5=
EXTT6=
EXTT7=
EXTT8=
EXTT9=
EXTT10=
EXTT11=
EXTT12=
EXTT13=
EXTT14=
PLAYORDER=
